<svg width="113" height="68" viewBox="0 0 113 68" fill="none" xmlns="http://www.w3.org/2000/svg">
<path d="M0.0204035 33.1002C0.162263 35.8164 0.758802 38.4547 1.76565 40.8189C3.88763 45.8178 7.52657 49.4371 11.4458 51.5883C16.3423 54.276 21.8005 54.3588 26.997 53.7595C31.8234 53.2029 36.6008 51.9127 41.445 51.6467C45.1913 51.4859 48.9414 51.6059 52.6777 52.0062C59.9266 52.6963 67.1453 53.9768 74.3176 55.5292C76.2601 55.9445 78.1984 56.3906 80.1327 56.8677C80.3155 56.8894 80.4963 56.9344 80.6727 57.0023C80.7079 57.0216 80.7643 57.0065 80.7965 57.0337C80.8549 57.083 80.5603 56.9086 80.7389 57.1066C80.9877 57.4568 81.2096 57.8398 81.4011 58.2497L84.05 62.8223C84.8096 64.1336 85.5146 65.7268 86.4964 66.7603C87.1886 67.4777 88.0237 67.904 88.8964 67.9856C89.769 68.0672 90.6401 67.8004 91.3999 67.2188C92.1935 66.5461 92.8265 65.5817 93.2233 64.4404C93.8326 62.9414 94.5595 61.5339 95.3917 60.2421C98.5431 55.3106 102.923 52.2774 106.586 48.1281C108.361 46.2005 109.875 43.8784 111.063 41.2631C112.077 38.8965 112.707 36.2697 112.913 33.5542C113.352 28.0395 112.09 22.4157 109.969 17.7242C107.661 12.6841 104.345 8.61332 100.399 5.97441C95.965 2.9446 91.0591 1.46878 86.1414 0.73335C80.9203 -0.0474739 75.6384 -0.0450399 70.3918 0.0337923C64.5036 0.121711 58.6261 0.469046 52.7592 1.07579C46.8844 1.68574 41.0327 2.55275 35.2042 3.67681C29.6115 4.7554 23.9504 5.87959 18.476 7.78808C13.6397 9.47406 8.81714 12.1093 5.20574 16.8841C1.99473 21.1296 -0.238594 26.9393 0.0204035 33.1002Z" fill="#F67669"/>
<path d="M27.0537 34.8545C26.8146 34.84 26.5803 34.7594 26.3656 34.6175C26.1509 34.4757 25.9604 34.2758 25.8062 34.0303C25.6519 33.7849 25.5371 33.4993 25.4692 33.1915C25.4012 32.8837 25.3815 32.5603 25.4113 32.2418L25.5355 30.9295C25.5592 30.6778 25.537 30.4221 25.4708 30.1845C25.4046 29.9468 25.2964 29.7343 25.1554 29.5652L24.4206 28.6844C24.1799 28.3961 24.0042 28.0232 23.9134 27.6079C23.8225 27.1926 23.8201 26.7515 23.9064 26.3344C23.9927 25.9174 24.1642 25.5411 24.4017 25.248C24.6391 24.955 24.933 24.7569 25.25 24.6762L26.2187 24.4294C26.4044 24.3821 26.5788 24.275 26.7268 24.1173C26.8748 23.9595 26.9919 23.7559 27.0682 23.5239L27.4658 22.3127C27.596 21.9167 27.8062 21.5775 28.0726 21.3334C28.339 21.0893 28.651 20.95 28.9733 20.9312C29.2956 20.9125 29.6154 21.0151 29.8965 21.2273C30.1777 21.4396 30.4089 21.7531 30.5642 22.1325L31.0382 23.292C31.1291 23.5146 31.259 23.7042 31.4168 23.8444C31.5745 23.9847 31.7553 24.0713 31.9436 24.0969L32.9243 24.2298C33.2453 24.2733 33.5509 24.4365 33.8063 24.7009C34.0618 24.9652 34.2571 25.3202 34.37 25.7256C34.4829 26.1311 34.509 26.5708 34.4453 26.9951C34.3816 27.4194 34.2307 27.8113 34.0096 28.1266L33.3342 29.0898C33.2045 29.2743 33.1103 29.4985 33.0597 29.7428C33.0092 29.9872 33.0037 30.2444 33.0438 30.4922L33.2522 31.7856C33.3204 32.2085 33.299 32.6486 33.1905 33.0561C33.082 33.4636 32.8907 33.8222 32.6382 34.0915C32.3857 34.3608 32.0821 34.5299 31.7617 34.5798C31.4412 34.6297 31.1168 34.5584 30.825 34.3739L29.9332 33.8102C29.7622 33.7015 29.5741 33.6504 29.385 33.6613C29.196 33.6722 29.0118 33.7448 28.8485 33.8727L27.9963 34.5383C27.711 34.7623 27.384 34.872 27.0537 34.8545V34.8545Z" fill="white"/>
<path d="M40.9393 34.3135C40.4993 34.2863 40.0833 34.0372 39.7745 33.616C39.5879 33.3509 39.4487 33.0323 39.3675 32.6844C39.2863 32.3365 39.2651 31.9684 39.3056 31.6078L39.4196 30.4038C39.4439 30.1474 39.4214 29.887 39.3539 29.6449C39.2865 29.4028 39.1762 29.1863 39.0325 29.0141L38.3509 28.1971C38.1498 27.9669 37.9896 27.6795 37.8818 27.3558C37.774 27.032 37.7214 26.6801 37.7278 26.3257C37.7427 25.8006 37.8901 25.2979 38.1459 24.9C38.4016 24.502 38.7506 24.2323 39.1355 24.1352L40.093 23.8913C40.2823 23.843 40.4601 23.7338 40.6109 23.5729C40.7617 23.412 40.8811 23.2043 40.9588 22.9677L41.3156 21.8808C41.4432 21.4682 41.6531 21.1109 41.9224 20.8481C42.1916 20.5853 42.5096 20.4273 42.8415 20.3913C43.1668 20.3666 43.4906 20.4663 43.7753 20.6787C44.06 20.8912 44.2939 21.2077 44.4497 21.5915L44.9182 22.7376C45.0109 22.9644 45.1434 23.1576 45.3042 23.3004C45.465 23.4433 45.6493 23.5315 45.8412 23.5575L46.7502 23.6807C47.0138 23.7084 47.2696 23.8146 47.4987 23.9917C47.7279 24.1688 47.9246 24.4123 48.0747 24.7044C48.2924 25.1409 48.3932 25.6637 48.3606 26.1871C48.328 26.7105 48.1639 27.2036 47.8952 27.5856L47.2276 28.5376C47.0957 28.7257 46.9998 28.954 46.9483 29.2029C46.8968 29.4517 46.8911 29.7136 46.9318 29.966L47.1242 31.1603C47.1858 31.505 47.1897 31.8637 47.1354 32.2107C47.0812 32.5576 46.9702 32.8841 46.8105 33.1665C46.5692 33.5814 46.2296 33.8735 45.8478 33.9947C45.4661 34.1158 45.0649 34.0588 44.7106 33.8329L43.8279 33.275C43.6538 33.165 43.4624 33.1134 43.2701 33.1246C43.0778 33.1358 42.8905 33.2095 42.7241 33.3395L41.8819 33.9974C41.5966 34.2213 41.2695 34.331 40.9393 34.3135V34.3135Z" fill="white"/>
<path d="M54.8607 34.2346C54.6216 34.2202 54.3874 34.1395 54.1727 33.9976C53.9579 33.8558 53.7675 33.6559 53.6132 33.4105C53.4589 33.165 53.3441 32.8794 53.2762 32.5716C53.2082 32.2638 53.1885 31.9404 53.2183 31.6219L53.3425 30.3096C53.3663 30.0579 53.344 29.8023 53.2778 29.5646C53.2116 29.3269 53.1034 29.1144 52.9624 28.9453L52.2276 28.0645C51.9869 27.7762 51.8112 27.4033 51.7204 26.988C51.6295 26.5727 51.6271 26.1316 51.7134 25.7146C51.7997 25.2975 51.9713 24.9212 52.2087 24.6281C52.4462 24.3351 52.74 24.137 53.057 24.0563L54.0257 23.8095C54.2114 23.7622 54.3858 23.6551 54.5338 23.4974C54.6818 23.3396 54.7989 23.136 54.8752 22.904L55.2728 21.6928C55.403 21.2968 55.6132 20.9576 55.8796 20.7135C56.146 20.4694 56.458 20.3301 56.7803 20.3113C57.1026 20.2926 57.4224 20.3952 57.7035 20.6074C57.9847 20.8197 58.2159 21.1333 58.3712 21.5126L58.8452 22.6721C58.9361 22.8947 59.066 23.0843 59.2238 23.2245C59.3815 23.3648 59.5623 23.4514 59.7506 23.477L60.7313 23.6099C61.0523 23.6534 61.3579 23.8166 61.6134 24.081C61.8688 24.3453 62.0641 24.7003 62.177 25.1057C62.2899 25.5112 62.316 25.9509 62.2523 26.3752C62.1886 26.7995 62.0377 27.1914 61.8166 27.5067L61.1412 28.4699C61.0115 28.6544 60.9174 28.8786 60.8668 29.1229C60.8162 29.3673 60.8107 29.6245 60.8508 29.8723L61.0592 31.1657C61.1274 31.5886 61.106 32.0287 60.9975 32.4362C60.889 32.8437 60.6977 33.2023 60.4452 33.4716C60.1927 33.7409 59.8891 33.91 59.5687 33.9599C59.2482 34.0098 58.9238 33.9385 58.632 33.754L57.7402 33.1903C57.5692 33.0816 57.3811 33.0305 57.192 33.0414C57.003 33.0523 56.8188 33.1249 56.6555 33.2528L55.8033 33.9184C55.5181 34.1424 55.191 34.2521 54.8607 34.2346V34.2346Z" fill="white"/>
<path opacity="0.2" d="M68.4018 33.7418C68.1628 33.7274 67.9285 33.6467 67.7138 33.5049C67.4991 33.363 67.3086 33.1631 67.1543 32.9177C67 32.6723 66.8853 32.3866 66.8173 32.0788C66.7494 31.771 66.7296 31.4476 66.7594 31.1291L66.8837 29.8169C66.9074 29.5652 66.8852 29.3095 66.819 29.0718C66.7528 28.8342 66.6445 28.6217 66.5035 28.4525L65.7687 27.5717C65.5281 27.2834 65.3524 26.9105 65.2615 26.4952C65.1706 26.0799 65.1682 25.6388 65.2545 25.2218C65.3408 24.8047 65.5124 24.4284 65.7498 24.1354C65.9873 23.8423 66.2811 23.6442 66.5981 23.5635L67.5669 23.3167C67.7526 23.2694 67.9269 23.1623 68.0749 23.0046C68.2229 22.8469 68.3401 22.6432 68.4164 22.4113L68.814 21.2C68.9442 20.8041 69.1543 20.4649 69.4207 20.2207C69.6871 19.9766 69.9991 19.8373 70.3214 19.8186C70.6437 19.7998 70.9635 19.9024 71.2447 20.1147C71.5258 20.327 71.757 20.6405 71.9123 21.0198L72.3863 22.1793C72.4772 22.4019 72.6071 22.5915 72.7649 22.7318C72.9226 22.872 73.1035 22.9586 73.2917 22.9842L74.2724 23.1171C74.5935 23.1607 74.899 23.3238 75.1545 23.5882C75.41 23.8525 75.6052 24.2075 75.7181 24.613C75.831 25.0184 75.8571 25.4581 75.7935 25.8824C75.7298 26.3067 75.5789 26.6987 75.3578 27.0139L74.6823 27.9771C74.5527 28.1617 74.4585 28.3858 74.4079 28.6302C74.3573 28.8745 74.3518 29.1317 74.392 29.3795L74.6003 30.673C74.6685 31.0959 74.6472 31.536 74.5387 31.9434C74.4302 32.3509 74.2389 32.7096 73.9863 32.9788C73.7338 33.2481 73.4302 33.4172 73.1098 33.4671C72.7894 33.517 72.4649 33.4457 72.1732 33.2612L71.2813 32.6975C71.1103 32.5889 70.9222 32.5378 70.7332 32.5487C70.5442 32.5596 70.36 32.6321 70.1966 32.7601L69.3444 33.4257C69.0592 33.6496 68.7321 33.7593 68.4018 33.7418V33.7418Z" fill="black"/>
<path opacity="0.2" d="M81.9431 33.249C81.704 33.2346 81.4698 33.1539 81.2551 33.0121C81.0403 32.8702 80.8499 32.6703 80.6956 32.4249C80.5413 32.1795 80.4265 31.8939 80.3586 31.586C80.2906 31.2782 80.2709 30.9549 80.3007 30.6363L80.4249 29.3241C80.4487 29.0724 80.4264 28.8167 80.3602 28.579C80.294 28.3414 80.1858 28.1289 80.0448 27.9597L79.31 27.079C79.0693 26.7906 78.8936 26.4177 78.8028 26.0024C78.7119 25.5872 78.7095 25.146 78.7958 24.729C78.8821 24.312 79.0536 23.9356 79.2911 23.6426C79.5285 23.3495 79.8224 23.1514 80.1394 23.0707L81.1081 22.8239C81.2938 22.7767 81.4682 22.6696 81.6162 22.5118C81.7641 22.3541 81.8813 22.1504 81.9576 21.9185L82.3552 20.7072C82.4854 20.3113 82.6956 19.9721 82.962 19.728C83.2284 19.4838 83.5403 19.3445 83.8627 19.3258C84.185 19.307 84.5048 19.4096 84.7859 19.6219C85.067 19.8342 85.2983 20.1477 85.4535 20.5271L85.9275 21.6866C86.0185 21.9092 86.1484 22.0988 86.3062 22.239C86.4639 22.3792 86.6447 22.4659 86.833 22.4914L87.8137 22.6243C88.1347 22.6679 88.4402 22.8311 88.6957 23.0954C88.9512 23.3598 89.1465 23.7148 89.2594 24.1202C89.3723 24.5256 89.3984 24.9654 89.3347 25.3897C89.271 25.814 89.1201 26.2059 88.899 26.5211L88.2236 27.4844C88.0939 27.6689 87.9997 27.8931 87.9491 28.1374C87.8985 28.3817 87.8931 28.6389 87.9332 28.8867L88.1416 30.1802C88.2098 30.6031 88.1884 31.0432 88.0799 31.4507C87.9714 31.8582 87.7801 32.2168 87.5276 32.4861C87.2751 32.7553 86.9715 32.9245 86.6511 32.9744C86.3306 33.0243 86.0062 32.9529 85.7144 32.7685L84.8226 32.2048C84.6516 32.0961 84.4634 32.045 84.2744 32.0559C84.0854 32.0668 83.9012 32.1394 83.7379 32.2673L82.8857 32.9329C82.6004 33.1568 82.2734 33.2665 81.9431 33.249Z" fill="black"/>
</svg>
